<?xml version="1.0" encoding="utf-8"?>
<!-- Generator: Adobe Illustrator 15.0.0, SVG Export Plug-In . SVG Version: 6.00 Build 0)  -->
<!DOCTYPE svg PUBLIC "-//W3C//DTD SVG 1.1//EN" "http://www.w3.org/Graphics/SVG/1.1/DTD/svg11.dtd">
<svg version="1.1" id="레이어_6" xmlns="http://www.w3.org/2000/svg" xmlns:xlink="http://www.w3.org/1999/xlink" x="0px"
	 y="0px" width="1024px" height="1024px" viewBox="0 0 1024 1024" enable-background="new 0 0 1024 1024" xml:space="preserve">
<circle fill="#04191E" stroke="#04191E" stroke-miterlimit="10" cx="510.482" cy="514.518" r="501.483"/>
<path fill="#FFFFFF" stroke="#04191E" stroke-miterlimit="10" d="M979.611,514.518c0,259.096-210.036,469.129-469.13,469.129
	c-259.091,0-469.128-210.033-469.128-469.129c0-259.09,210.037-469.125,469.128-469.125
	C769.575,45.392,979.611,255.427,979.611,514.518z"/>
<path fill="#04191E" stroke="#04191E" stroke-miterlimit="10" d="M963.434,514.518c0,250.156-202.796,452.951-452.955,452.951
	c-250.156,0-452.948-202.795-452.948-452.951c0-250.156,202.792-452.949,452.948-452.949
	C760.638,61.569,963.434,264.362,963.434,514.518z"/>
<path fill="#0B2A33" stroke="#04191E" stroke-miterlimit="10" d="M955.345,514.518c0,245.691-199.174,444.863-444.866,444.863
	S65.62,760.209,65.62,514.518c0-245.69,199.167-444.861,444.859-444.861S955.345,268.828,955.345,514.518z"/>
<g>
	<path fill="#FFFFFF" d="M435.121,545.221c-0.617,0-1.216-0.133-1.779-0.393l-64.224-29.793l-45.845-8.525
		c-0.906-0.17-1.743-0.637-2.358-1.313l-83.392-91.549c-0.094-0.102-0.185-0.213-0.271-0.329l-47.107-63.759
		c-0.469-0.635-0.75-1.386-0.812-2.17l-6.47-77.644c-0.087-1.037,0.208-2.065,0.833-2.895l9.705-12.94
		c0.793-1.062,2.059-1.697,3.385-1.697c0.757,0,1.504,0.206,2.159,0.594l23.727,14.019c1.088,0.642,1.827,1.729,2.027,2.98
		l7.399,46.523l28.327,41.895l47.979,42.819h32.03l57.442-24.465c0.526-0.223,1.093-0.34,1.641-0.34l35.736,1.081
		c2.334,0.07,4.177,2.027,4.106,4.361c-0.068,2.269-1.908,4.115-4.102,4.115c-0.102,0-0.204-0.004-0.307-0.012l-34.612-1.046
		l-57.38,24.438c-0.528,0.225-1.086,0.339-1.659,0.339H306.79c-1.041,0-2.042-0.382-2.82-1.075l-49.58-44.247
		c-0.265-0.237-0.496-0.503-0.689-0.791l-29.148-43.106c-0.347-0.513-0.58-1.104-0.674-1.71l-7.233-45.481L197.9,262.028
		l-6.463,8.619l6.235,74.847l46.259,62.611l82.288,90.335l44.972,8.366c0.346,0.065,0.684,0.173,1.005,0.321l64.71,30.016
		c2.118,0.982,3.042,3.506,2.06,5.625C438.276,544.258,436.766,545.221,435.121,545.221z"/>
	<path fill="#FFFFFF" d="M433.72,754.039c-1.48,0-2.872-0.787-3.632-2.057c-0.761-1.264-0.802-2.861-0.107-4.166l9.037-16.986
		c0.567-1.068,1.567-1.842,2.744-2.127l17.792-4.314c0.327-0.082,0.671-0.125,1.014-0.125c1.953,0,3.639,1.334,4.099,3.244
		c0.266,1.098,0.088,2.234-0.5,3.201c-0.589,0.965-1.519,1.645-2.619,1.91l-15.945,3.869l-4.831,9.08h152.166l8.266-15.654
		l-5.18-34.211c-0.107-0.678-0.041-1.385,0.191-2.041l20.252-57.553V582.75l-20.874-45.916l-33.64-33.639l-62.164-39.656
		c-0.542-0.345-1.007-0.821-1.342-1.375l-18.331-30.195c-0.208-0.343-0.364-0.71-0.467-1.093l-14.019-51.765
		c-0.148-0.541-0.187-1.103-0.111-1.667l4.254-31.899l-3.195-38.367c-0.041-0.473-0.001-0.951,0.12-1.418l12.439-50.695
		l-1.776-2.489l-34.301,24.501c-0.721,0.515-1.572,0.787-2.462,0.787c-0.596,0-1.174-0.122-1.718-0.363l-8.888-3.951h-58.854
		l-38.666,37.625l-21.039,18.044l5.863,36.161l25.552,23.529c1.682,1.621,1.734,4.306,0.116,5.988
		c-0.805,0.838-1.889,1.301-3.051,1.301c-1.099,0-2.142-0.42-2.937-1.183l-26.571-24.508c-0.654-0.627-1.097-1.47-1.245-2.372
		l-6.471-39.906c-0.234-1.446,0.313-2.938,1.426-3.894l22.648-19.413l39.7-38.645c0.794-0.773,1.843-1.199,2.954-1.199h61.472
		c0.587,0,1.182,0.125,1.719,0.363l7.499,3.333l35.778-25.556c0.726-0.517,1.574-0.79,2.454-0.79c0.236,0,0.473,0.02,0.709,0.061
		c1.097,0.182,2.1,0.809,2.746,1.718l5.389,7.547c0.731,1.02,0.97,2.307,0.654,3.528l-12.757,51.911l3.174,38.104
		c0.028,0.292,0.021,0.604-0.021,0.914l-4.204,31.506l13.642,50.366l17.509,28.844l61.722,39.375
		c0.276,0.178,0.519,0.374,0.724,0.583l34.501,34.5c0.358,0.361,0.647,0.777,0.859,1.238l21.574,47.453
		c0.248,0.541,0.38,1.148,0.38,1.752v55.002c0,0.479-0.08,0.951-0.238,1.404l-20.143,57.242l5.229,34.547
		c0.137,0.889-0.02,1.816-0.439,2.611l-10.109,19.145c-0.738,1.395-2.174,2.258-3.747,2.258H433.72z"/>
	<path fill="#FFFFFF" d="M508.729,733.055c-0.337,0-0.67-0.039-0.991-0.119l-40.701-9.703c-0.384-0.094-0.746-0.234-1.08-0.422
		l-32.897-18.338c-0.717-0.398-1.297-0.992-1.678-1.717l-18.33-34.504c-0.423-0.799-0.582-1.729-0.446-2.619l5.39-35.588
		c0.091-0.621,0.328-1.227,0.685-1.748l20.49-30.195c0.409-0.605,0.979-1.102,1.647-1.43l42.063-20.488
		c0.585-0.283,1.207-0.426,1.849-0.426c1.634,0,3.095,0.912,3.813,2.379c1.021,2.104,0.144,4.643-1.955,5.666l-41.042,19.99
		l-19.319,28.469l-5.038,33.258l17.09,32.166l31.293,17.445l39.653,9.453h41.563c2.335,0,4.235,1.9,4.235,4.234
		c0,2.336-1.9,4.236-4.235,4.236H508.729z"/>
	<path fill="#FFFFFF" d="M382.211,755.467c-1.498,0-2.898-0.803-3.656-2.096c-0.758-1.293-0.771-2.91-0.034-4.217l7.279-12.941
		c0.481-0.857,1.255-1.527,2.179-1.881l16.987-6.471c0.171-0.064,0.34-0.119,0.514-0.156l7.407-1.854l-20.246-14.885
		c-0.216-0.158-0.421-0.344-0.61-0.547l-17.797-19.416c-0.67-0.734-1.063-1.68-1.108-2.664l-1.618-34.779
		c-0.029-0.668,0.099-1.336,0.369-1.936l14.559-32.355l3.773-8.803l-32.217-36.82c-0.331-0.377-0.59-0.809-0.772-1.281
		l-20.223-53.389c-0.826-2.182,0.278-4.633,2.459-5.462c0.487-0.182,0.989-0.272,1.498-0.272c1.751,0,3.345,1.098,3.966,2.731
		l19.949,52.675l33.471,38.248c1.065,1.217,1.341,2.965,0.704,4.455l-4.854,11.324l-14.174,31.502l1.501,32.234l16.476,17.973
		l27.169,19.979c1.314,0.967,1.96,2.627,1.646,4.229c-0.318,1.605-1.547,2.896-3.131,3.291l-15.929,3.986l-15.318,5.834
		l-2.978,5.293h34.009c2.335,0,4.235,1.9,4.235,4.234c0,2.336-1.9,4.236-4.235,4.236H382.211z"/>
	<path fill="#FFFFFF" d="M349.625,275.335c-0.127,0-0.254-0.005-0.382-0.018c-1.116-0.097-2.137-0.628-2.864-1.494
		s-1.074-1.964-0.976-3.09l3.235-37.206c0.066-0.769,0.341-1.504,0.795-2.126l6.47-8.897c0.792-1.09,2.097-1.741,3.491-1.741
		c0.014,0,0.098,0.001,0.112,0.001c1.419,0.06,2.707,0.822,3.444,2.038l18.604,30.737c0.586,0.967,0.76,2.104,0.489,3.203
		s-0.952,2.026-1.92,2.612c-0.665,0.401-1.423,0.612-2.193,0.612c-1.498,0-2.852-0.765-3.624-2.045l-15.302-25.281l-2.029,2.791
		l-3.135,36.034C353.651,273.672,351.838,275.335,349.625,275.335z"/>
	<path fill="#FFFFFF" d="M276.106,758.129c-2.335,0-4.235-1.9-4.235-4.236v-5.662c0-0.881,0.269-1.727,0.778-2.447l13.751-19.412
		c0.518-0.732,1.271-1.289,2.12-1.57l13.972-4.658l-3.924-104.404c-0.008-0.223,0-0.451,0.029-0.68l12.941-104.338
		c0.26-2.121,2.044-3.721,4.149-3.721c0.195,0,0.393,0.014,0.593,0.042c1.103,0.136,2.104,0.702,2.8,1.595
		c0.696,0.893,1.002,2.004,0.862,3.127l-12.899,104L311.074,723c0.07,1.871-1.12,3.586-2.894,4.174l-15.668,5.225l-12.17,17.182
		v0.078h44.571l5.419-7.432l3.878-23.008l2.843-15.434c0.059-0.307,0.148-0.605,0.267-0.889l21.437-50.154
		c0.668-1.563,2.201-2.57,3.904-2.57c0.572,0,1.128,0.113,1.655,0.338c2.147,0.92,3.149,3.414,2.233,5.559l-21.252,49.717
		l-2.745,14.906l-4.032,23.928c-0.111,0.648-0.373,1.268-0.756,1.793l-7.28,9.979c-0.796,1.09-2.075,1.738-3.421,1.738H276.106z"/>
	<path fill="#FFFFFF" d="M745.72,808.276c-0.172,0-0.347-0.01-0.519-0.029l-32.36-4.047c-0.389-0.049-0.771-0.15-1.134-0.307
		l-19.008-8.088c-1.358-0.58-2.303-1.795-2.527-3.252l-1.617-10.514c-0.267-1.744,0.545-3.436,2.069-4.314l10.514-6.064
		c0.651-0.375,1.384-0.566,2.178-0.566l0.206,0.006l23.281,1.617l26.175,0.389l20.121-4.391l3.556-5.215l-3.791-6.07l-14.889-4.963
		H642.997c-0.371,0-0.745-0.049-1.111-0.146l-15.778-4.318l-7.906-2.625c-2.212-0.74-3.415-3.143-2.682-5.359
		c0.579-1.73,2.196-2.893,4.024-2.893c0.448,0,0.895,0.07,1.326,0.209l7.693,2.561l15,4.102h115.098c0.451,0,0.9,0.074,1.336,0.217
		l16.989,5.664c0.935,0.311,1.733,0.941,2.251,1.773l6.065,9.703c0.893,1.424,0.857,3.242-0.091,4.633l-6.066,8.896
		c-0.611,0.9-1.535,1.523-2.601,1.752l-22.24,4.85c-0.288,0.066-0.602,0.1-0.948,0.1l-26.909-0.404l-22.195-1.537l-6.884,3.973
		l0.816,5.32l16.294,6.934l31.386,3.92l42.651-2.369l24.419-9.154l14.853-14.852l1.72-18.234l-11.773-14.988l-29.656-16.559
		l-67.903-7.59l-67.872-6.465c-0.58-0.055-1.137-0.225-1.649-0.51l-33.568-18.604c-2.043-1.135-2.785-3.719-1.654-5.758
		c0.745-1.348,2.167-2.186,3.709-2.186c0.714,0,1.423,0.184,2.05,0.531l32.797,18.178l67.062,6.389l68.821,7.688
		c0.564,0.063,1.103,0.236,1.599,0.518l31.135,17.385c0.49,0.273,0.917,0.637,1.266,1.08l13.346,16.986
		c0.675,0.863,0.989,1.934,0.885,3.016l-2.021,21.434c-0.092,0.984-0.526,1.908-1.223,2.6l-16.579,16.578
		c-0.417,0.418-0.937,0.754-1.501,0.971l-25.888,9.709c-0.423,0.154-0.845,0.24-1.261,0.262l-43.67,2.424
		C745.884,808.274,745.801,808.276,745.72,808.276z"/>
</g>
<g>
	
		<image overflow="visible" opacity="0.8" width="716" height="648" xlink:href="28D82429.png"  transform="matrix(1 0 0 1 162.5938 200.7341)">
	</image>
	<g>
		<g>
			<path fill="#FFFFFF" d="M435.121,545.221c-0.617,0-1.216-0.133-1.779-0.393l-64.224-29.793l-45.845-8.525
				c-0.905-0.17-1.742-0.637-2.357-1.313l-83.393-91.549c-0.094-0.102-0.185-0.213-0.271-0.329l-47.107-63.759
				c-0.469-0.635-0.75-1.386-0.812-2.17l-6.471-77.644c-0.087-1.037,0.209-2.065,0.833-2.895l9.705-12.94
				c0.793-1.062,2.06-1.697,3.385-1.697c0.758,0,1.504,0.206,2.159,0.594l23.727,14.019c1.089,0.642,1.827,1.729,2.027,2.98
				l7.399,46.523l28.327,41.895l47.979,42.819h32.03l57.441-24.465c0.526-0.223,1.094-0.34,1.641-0.34l35.736,1.081
				c2.334,0.07,4.177,2.027,4.106,4.361c-0.068,2.269-1.908,4.115-4.103,4.115c-0.102,0-0.203-0.004-0.307-0.012l-34.612-1.046
				l-57.381,24.438c-0.528,0.225-1.086,0.339-1.658,0.339H306.79c-1.041,0-2.042-0.382-2.82-1.075l-49.58-44.247
				c-0.265-0.237-0.495-0.503-0.688-0.791l-29.148-43.106c-0.347-0.513-0.58-1.104-0.674-1.71l-7.233-45.481L197.9,262.028
				l-6.463,8.619l6.235,74.847l46.259,62.611l82.288,90.335l44.972,8.366c0.346,0.065,0.684,0.173,1.005,0.321l64.711,30.016
				c2.118,0.982,3.042,3.506,2.06,5.625C438.276,544.258,436.767,545.221,435.121,545.221z"/>
			<path fill="#FFFFFF" d="M433.72,754.039c-1.479,0-2.871-0.787-3.632-2.057c-0.761-1.264-0.802-2.861-0.107-4.166l9.037-16.986
				c0.566-1.068,1.566-1.842,2.743-2.127l17.793-4.314c0.327-0.082,0.671-0.125,1.014-0.125c1.953,0,3.639,1.334,4.099,3.244
				c0.267,1.098,0.089,2.234-0.5,3.201c-0.589,0.965-1.519,1.645-2.619,1.91l-15.945,3.869l-4.83,9.08h152.165l8.266-15.654
				l-5.18-34.211c-0.107-0.678-0.041-1.385,0.191-2.041l20.252-57.553V582.75l-20.874-45.916l-33.64-33.639l-62.164-39.656
				c-0.542-0.345-1.007-0.821-1.342-1.375l-18.331-30.195c-0.207-0.343-0.364-0.71-0.467-1.093l-14.019-51.765
				c-0.148-0.541-0.187-1.103-0.111-1.667l4.254-31.899l-3.194-38.367c-0.041-0.473-0.001-0.951,0.119-1.418l12.439-50.695
				l-1.776-2.489l-34.301,24.501c-0.721,0.515-1.572,0.787-2.463,0.787c-0.596,0-1.174-0.122-1.718-0.363l-8.888-3.951h-58.854
				l-38.666,37.625l-21.039,18.044l5.863,36.161l25.552,23.529c1.683,1.621,1.734,4.306,0.116,5.988
				c-0.805,0.838-1.889,1.301-3.051,1.301c-1.099,0-2.142-0.42-2.937-1.183l-26.571-24.508c-0.654-0.627-1.097-1.47-1.245-2.372
				l-6.471-39.906c-0.234-1.446,0.313-2.938,1.426-3.894l22.648-19.413l39.7-38.645c0.794-0.773,1.843-1.199,2.953-1.199h61.472
				c0.587,0,1.182,0.125,1.719,0.363l7.499,3.333l35.777-25.556c0.726-0.517,1.574-0.79,2.454-0.79c0.235,0,0.473,0.02,0.709,0.061
				c1.097,0.182,2.1,0.809,2.745,1.718l5.389,7.547c0.731,1.02,0.97,2.307,0.654,3.528l-12.757,51.911l3.174,38.104
				c0.027,0.292,0.021,0.604-0.021,0.914l-4.204,31.506l13.642,50.366l17.509,28.844l61.722,39.375
				c0.276,0.178,0.519,0.374,0.724,0.583l34.501,34.5c0.358,0.361,0.647,0.777,0.859,1.238l21.574,47.453
				c0.248,0.541,0.38,1.148,0.38,1.752v55.002c0,0.479-0.08,0.951-0.238,1.404l-20.143,57.242l5.229,34.547
				c0.137,0.889-0.02,1.816-0.439,2.611l-10.109,19.145c-0.738,1.395-2.174,2.258-3.747,2.258H433.72z"/>
			<path fill="#FFFFFF" d="M508.729,733.055c-0.337,0-0.67-0.039-0.991-0.119l-40.701-9.703c-0.384-0.094-0.745-0.234-1.079-0.422
				l-32.897-18.338c-0.717-0.398-1.297-0.992-1.678-1.717l-18.33-34.504c-0.423-0.799-0.582-1.729-0.446-2.619l5.39-35.588
				c0.091-0.621,0.328-1.227,0.686-1.748l20.49-30.195c0.408-0.605,0.979-1.102,1.647-1.43l42.063-20.488
				c0.586-0.283,1.207-0.426,1.849-0.426c1.634,0,3.095,0.912,3.813,2.379c1.021,2.104,0.144,4.643-1.955,5.666l-41.043,19.99
				l-19.318,28.469l-5.038,33.258l17.09,32.166l31.293,17.445l39.653,9.453h41.563c2.335,0,4.235,1.9,4.235,4.234
				c0,2.336-1.9,4.236-4.235,4.236H508.729z"/>
			<path fill="#FFFFFF" d="M382.212,755.467c-1.498,0-2.898-0.803-3.656-2.096s-0.771-2.91-0.033-4.217l7.278-12.941
				c0.481-0.857,1.255-1.527,2.18-1.881l16.987-6.471c0.171-0.064,0.34-0.119,0.514-0.156l7.407-1.854l-20.246-14.885
				c-0.216-0.158-0.421-0.344-0.609-0.547l-17.798-19.416c-0.67-0.734-1.063-1.68-1.108-2.664l-1.617-34.779
				c-0.029-0.668,0.099-1.336,0.368-1.936l14.559-32.355l3.773-8.803l-32.217-36.82c-0.33-0.377-0.59-0.809-0.771-1.281
				l-20.223-53.389c-0.826-2.182,0.277-4.633,2.459-5.462c0.487-0.182,0.989-0.272,1.498-0.272c1.751,0,3.345,1.098,3.966,2.731
				l19.949,52.675l33.471,38.248c1.064,1.217,1.341,2.965,0.704,4.455l-4.854,11.324l-14.175,31.502l1.501,32.234l16.476,17.973
				l27.17,19.979c1.313,0.967,1.96,2.627,1.646,4.229c-0.318,1.605-1.547,2.896-3.132,3.291l-15.929,3.986l-15.318,5.834
				l-2.978,5.293h34.009c2.335,0,4.235,1.9,4.235,4.234c0,2.336-1.9,4.236-4.235,4.236H382.212z"/>
			<path fill="#FFFFFF" d="M349.626,275.335c-0.128,0-0.255-0.005-0.382-0.018c-1.116-0.097-2.137-0.628-2.864-1.494
				s-1.074-1.964-0.977-3.09l3.235-37.206c0.066-0.769,0.342-1.504,0.795-2.126l6.471-8.897c0.792-1.09,2.097-1.741,3.49-1.741
				c0.014,0,0.099,0.001,0.112,0.001c1.419,0.06,2.707,0.822,3.444,2.038l18.604,30.737c0.586,0.967,0.76,2.104,0.489,3.203
				s-0.952,2.026-1.92,2.612c-0.665,0.401-1.423,0.612-2.193,0.612c-1.498,0-2.853-0.765-3.624-2.045l-15.302-25.281l-2.029,2.791
				l-3.135,36.034C353.651,273.672,351.839,275.335,349.626,275.335z"/>
			<path fill="#FFFFFF" d="M276.106,758.129c-2.336,0-4.235-1.9-4.235-4.236v-5.662c0-0.881,0.269-1.727,0.777-2.447l13.751-19.412
				c0.519-0.732,1.271-1.289,2.12-1.57l13.972-4.658l-3.925-104.404c-0.008-0.223,0.001-0.451,0.029-0.68l12.941-104.338
				c0.261-2.121,2.044-3.721,4.149-3.721c0.195,0,0.393,0.014,0.593,0.042c1.103,0.136,2.104,0.702,2.8,1.595
				c0.696,0.893,1.003,2.004,0.862,3.127l-12.899,104L311.074,723c0.069,1.871-1.12,3.586-2.894,4.174l-15.669,5.225l-12.17,17.182
				v0.078h44.57l5.419-7.432l3.879-23.008l2.843-15.434c0.059-0.307,0.148-0.605,0.268-0.889l21.437-50.154
				c0.668-1.563,2.2-2.57,3.904-2.57c0.571,0,1.128,0.113,1.654,0.338c2.147,0.92,3.149,3.414,2.233,5.559l-21.252,49.717
				l-2.745,14.906l-4.031,23.928c-0.111,0.648-0.373,1.268-0.756,1.793l-7.28,9.979c-0.797,1.09-2.075,1.738-3.421,1.738H276.106z"
				/>
			<path fill="#FFFFFF" d="M745.72,808.276c-0.172,0-0.347-0.01-0.519-0.029l-32.36-4.047c-0.389-0.049-0.771-0.15-1.134-0.307
				l-19.008-8.088c-1.358-0.58-2.303-1.795-2.527-3.252l-1.617-10.514c-0.267-1.744,0.545-3.436,2.069-4.314l10.514-6.064
				c0.651-0.375,1.384-0.566,2.178-0.566l0.206,0.006l23.281,1.617l26.175,0.389l20.121-4.391l3.556-5.215l-3.791-6.07
				l-14.889-4.963H642.997c-0.371,0-0.745-0.049-1.111-0.146l-15.778-4.318l-7.906-2.625c-2.212-0.74-3.415-3.143-2.682-5.359
				c0.579-1.73,2.196-2.893,4.024-2.893c0.448,0,0.895,0.07,1.326,0.209l7.693,2.561l15,4.102h115.098
				c0.451,0,0.9,0.074,1.336,0.217l16.989,5.664c0.935,0.311,1.733,0.941,2.251,1.773l6.065,9.703
				c0.893,1.424,0.857,3.242-0.091,4.633l-6.066,8.896c-0.611,0.9-1.535,1.523-2.601,1.752l-22.24,4.85
				c-0.288,0.066-0.602,0.1-0.948,0.1l-26.909-0.404l-22.195-1.537l-6.884,3.973l0.816,5.32l16.294,6.934l31.386,3.92l42.651-2.369
				l24.419-9.154l14.853-14.852l1.72-18.234l-11.773-14.988l-29.656-16.559l-67.903-7.59l-67.872-6.465
				c-0.58-0.055-1.137-0.225-1.649-0.51l-33.568-18.604c-2.043-1.135-2.785-3.719-1.654-5.758c0.745-1.348,2.167-2.186,3.709-2.186
				c0.714,0,1.423,0.184,2.05,0.531l32.797,18.178l67.062,6.389l68.821,7.688c0.564,0.063,1.103,0.236,1.599,0.518l31.135,17.385
				c0.49,0.273,0.917,0.637,1.266,1.08l13.346,16.986c0.675,0.863,0.989,1.934,0.885,3.016l-2.021,21.434
				c-0.092,0.984-0.526,1.908-1.223,2.6l-16.579,16.578c-0.417,0.418-0.937,0.754-1.501,0.971l-25.888,9.709
				c-0.423,0.154-0.845,0.24-1.261,0.262l-43.67,2.424C745.884,808.274,745.801,808.276,745.72,808.276z"/>
		</g>
	</g>
</g>
<g>
	<image overflow="visible" width="728" height="660" xlink:href="28D8242F.png"  transform="matrix(1 0 0 1 146.5938 184.7341)">
	</image>
</g>
</svg>
