<?xml version="1.0" encoding="utf-8"?>
<!-- Generator: Adobe Illustrator 15.0.0, SVG Export Plug-In . SVG Version: 6.00 Build 0)  -->
<!DOCTYPE svg PUBLIC "-//W3C//DTD SVG 1.1//EN" "http://www.w3.org/Graphics/SVG/1.1/DTD/svg11.dtd">
<svg version="1.1" xmlns="http://www.w3.org/2000/svg" xmlns:xlink="http://www.w3.org/1999/xlink" x="0px" y="0px" width="16px"
	 height="16px" viewBox="0 0 16 16" enable-background="new 0 0 16 16" xml:space="preserve">
<g id="레이어_9" display="none">
	<rect x="-2.625" y="-2.042" display="inline" fill="#508DCB" width="25.167" height="24"/>
</g>
<g id="레이어_1">
	<g>
		<path fill-rule="evenodd" clip-rule="evenodd" d="M6.614,0.286c0.924,0,1.848,0,2.772,0c0.907,0.238,0.594,1.812-0.632,1.446
			c-0.07,0.101-0.011,0.331-0.03,0.482c1.258,0.228,2.341,0.632,3.164,1.295c0.129-0.083,0.203-0.219,0.332-0.301
			c-0.141-0.24-0.347-0.376-0.572-0.603C11.5,2.46,11.11,2.161,11.104,1.974c-0.017-0.457,1.19-0.919,1.657-0.964
			c0.703-0.069,1.262,0.134,1.688,0.392c0.259-0.093,0.282-0.392,0.542-0.392c0.307,0,0.479,0.476,0.724,0.633
			c0,0.06,0,0.121,0,0.181c-0.116,0.156-0.276,0.266-0.392,0.422c0.182,0.311,0.306,0.679,0.392,1.085c0,0.221,0,0.442,0,0.663
			c-0.074,0.341-0.156,0.646-0.331,0.964c-0.12,0.217-0.367,0.655-0.604,0.663c-0.228,0.008-0.483-0.394-0.632-0.542
			c-0.24-0.24-0.403-0.384-0.604-0.572c-0.128,0.082-0.202,0.219-0.331,0.301c0.629,0.905,1.207,2.033,1.296,3.465
			c0.129,2.078-0.704,3.726-1.657,4.792c0.159,0.351,0.385,0.743,0.633,1.235c0.158,0.314,0.618,0.988,0.512,1.266
			c-0.026,0.068-0.057,0.106-0.12,0.15c-0.382,0-0.764,0-1.146,0c-0.52-0.425-1.005-0.883-1.536-1.296
			c-1.533,1.038-4.833,1.069-6.358,0c-0.569,0.386-1.033,0.876-1.567,1.296c-0.381,0-0.763,0-1.145,0
			c-0.326-0.264,0.228-1.09,0.392-1.416c0.248-0.493,0.456-0.874,0.633-1.205c-0.934-1.099-1.788-2.726-1.658-4.822
			C1.58,6.85,2.136,5.723,2.787,4.836C2.705,4.708,2.568,4.633,2.486,4.505C2.247,4.644,2.109,4.852,1.883,5.077
			C1.737,5.223,1.439,5.612,1.25,5.62c-0.259,0.01-0.512-0.443-0.633-0.663C0.435,4.625,0.364,4.338,0.286,3.992
			c0-0.221,0-0.442,0-0.663c0.088-0.394,0.192-0.772,0.392-1.055C0.593,2.079,0.397,1.993,0.286,1.823c0-0.06,0-0.121,0-0.181
			C0.53,1.485,0.704,1.009,1.009,1.009c0.26,0,0.284,0.299,0.542,0.392c0.423-0.259,0.96-0.452,1.657-0.392
			C3.68,1.05,4.914,1.503,4.896,1.974C4.889,2.161,4.5,2.46,4.354,2.606C4.128,2.833,3.922,2.969,3.781,3.209
			C3.91,3.292,3.984,3.428,4.113,3.51c0.835-0.642,1.856-1.097,3.164-1.266c0-0.17,0-0.341,0-0.512
			C6.036,2.11,5.693,0.536,6.614,0.286z M6.584,1.13C6.71,1.358,7.63,1.25,8.09,1.25c0.51,0,1.396,0.124,1.356-0.271
			C9.416,0.675,8.56,0.768,8.211,0.768c-0.562,0-1.208-0.087-1.477,0.03C6.616,0.85,6.487,0.955,6.584,1.13z M0.768,3.781
			C0.792,4.29,0.983,4.634,1.22,4.987C2.272,4.01,3.287,2.996,4.264,1.943C2.77,0.846,0.681,1.949,0.768,3.781z M15.231,3.541
			c-0.079-1.653-2.074-2.665-3.495-1.597c0.977,1.052,1.991,2.066,3.043,3.043C15.056,4.594,15.261,4.145,15.231,3.541z
			 M0.889,1.763c0.062,0.009,0.059,0.082,0.121,0.09c0.021-0.07,0.1-0.081,0.121-0.151c-0.071-0.009-0.056-0.104-0.151-0.09
			C0.97,1.683,0.875,1.668,0.889,1.763z M14.87,1.732c0.07,0.021,0.081,0.1,0.15,0.121c0.018-0.043,0.047-0.074,0.091-0.09
			C15.095,1.593,14.914,1.585,14.87,1.732z M7.759,2.215c0.161,0,0.322,0,0.482,0c0-0.161,0-0.322,0-0.482c-0.161,0-0.322,0-0.482,0
			C7.759,1.893,7.759,2.054,7.759,2.215z M3.57,4.655C2.653,5.649,1.864,7.156,2.004,9.055c0.136,1.848,0.823,3.105,1.898,4.098
			c1.021,0.942,2.555,1.694,4.399,1.567c1.732-0.12,3.086-0.811,4.098-1.898c0.923-0.994,1.751-2.469,1.627-4.399
			c-0.113-1.757-0.92-3.185-1.898-4.098c-0.944-0.881-2.579-1.725-4.429-1.597C5.875,2.854,4.481,3.669,3.57,4.655z M2.847,4.113
			c0.201,0.674,0.626-0.151,0.844-0.301C3.393,3.319,3.133,3.919,2.847,4.113z M12.55,3.57c-0.004,0.116-0.246,0.149-0.241,0.271
			c0.002,0.033,0.569,0.574,0.603,0.572c0.118-0.005,0.163-0.228,0.241-0.301C12.93,3.955,12.799,3.704,12.55,3.57z M2.636,15.231
			c0.141,0,0.281,0,0.422,0c0.443-0.36,0.88-0.727,1.296-1.114c-0.309-0.194-0.572-0.433-0.844-0.663
			C3.222,14.05,2.908,14.619,2.636,15.231z M11.646,14.147c0.205,0.167,0.419,0.333,0.662,0.542c0.291,0.249,0.51,0.635,1.055,0.542
			c-0.288-0.605-0.565-1.222-0.903-1.777C12.233,13.729,11.903,13.902,11.646,14.147z"/>
		<path fill-rule="evenodd" clip-rule="evenodd" fill="#CCD0DF" d="M6.734,0.798c0.269-0.117,0.915-0.03,1.477-0.03
			c0.349,0,1.205-0.093,1.235,0.211C9.486,1.375,8.601,1.25,8.09,1.25c-0.46,0-1.38,0.108-1.506-0.121
			C6.487,0.955,6.616,0.85,6.734,0.798z"/>
		<path fill-rule="evenodd" clip-rule="evenodd" fill="#F6BE49" d="M4.264,1.943C3.287,2.996,2.272,4.01,1.22,4.987
			C0.983,4.634,0.792,4.29,0.768,3.781C0.681,1.949,2.77,0.846,4.264,1.943z"/>
		<path fill-rule="evenodd" clip-rule="evenodd" fill="#F6BE49" d="M14.779,4.987c-1.052-0.977-2.066-1.991-3.043-3.043
			c1.421-1.067,3.416-0.056,3.495,1.597C15.261,4.145,15.056,4.594,14.779,4.987z"/>
		<path fill-rule="evenodd" clip-rule="evenodd" fill="#FFFFFF" d="M0.979,1.612c0.095-0.014,0.08,0.081,0.151,0.09
			c-0.021,0.07-0.1,0.081-0.121,0.151C0.948,1.844,0.95,1.771,0.889,1.763C0.875,1.668,0.97,1.683,0.979,1.612z"/>
		<path fill-rule="evenodd" clip-rule="evenodd" fill="#FFFFFF" d="M15.111,1.763c-0.044,0.017-0.073,0.047-0.091,0.09
			c-0.069-0.021-0.08-0.1-0.15-0.121C14.914,1.585,15.095,1.593,15.111,1.763z"/>
		<path fill-rule="evenodd" clip-rule="evenodd" fill="#7D8493" d="M7.759,1.732c0.161,0,0.322,0,0.482,0c0,0.161,0,0.321,0,0.482
			c-0.161,0-0.322,0-0.482,0C7.759,2.054,7.759,1.893,7.759,1.732z"/>
		<path fill-rule="evenodd" clip-rule="evenodd" fill="#508DCB" d="M7.699,2.727c1.85-0.128,3.485,0.716,4.429,1.597
			c0.979,0.913,1.785,2.341,1.898,4.098c0.124,1.931-0.704,3.405-1.627,4.399c-1.012,1.088-2.366,1.778-4.098,1.898
			c-1.844,0.127-3.378-0.625-4.399-1.567c-1.075-0.992-1.762-2.25-1.898-4.098C1.864,7.156,2.653,5.649,3.57,4.655
			C4.481,3.669,5.875,2.854,7.699,2.727z M4.384,5.198C3.633,5.955,3.033,6.875,2.938,8.301c-0.137,2.042,0.728,3.361,1.717,4.249
			c0.923,0.828,2.325,1.353,3.827,1.235c1.432-0.111,2.548-0.83,3.345-1.718c0.809-0.9,1.365-2.164,1.235-3.826
			c-0.113-1.444-0.886-2.598-1.718-3.345c-0.846-0.759-2.228-1.355-3.857-1.206C6.102,3.818,5.125,4.451,4.384,5.198z"/>
		<path fill-rule="evenodd" clip-rule="evenodd" fill="#7D8493" d="M3.691,3.812c-0.218,0.15-0.643,0.976-0.844,0.301
			C3.133,3.919,3.393,3.319,3.691,3.812z"/>
		<path fill-rule="evenodd" clip-rule="evenodd" fill="#7D8493" d="M13.152,4.113c-0.078,0.074-0.123,0.296-0.241,0.301
			c-0.033,0.001-0.601-0.54-0.603-0.572c-0.005-0.123,0.237-0.156,0.241-0.271C12.799,3.704,12.93,3.955,13.152,4.113z"/>
		<path fill-rule="evenodd" clip-rule="evenodd" d="M7.488,3.691c1.629-0.15,3.011,0.447,3.857,1.206
			c0.832,0.747,1.604,1.901,1.718,3.345c0.13,1.662-0.427,2.926-1.235,3.826c-0.797,0.888-1.913,1.606-3.345,1.718
			c-1.502,0.117-2.904-0.407-3.827-1.235c-0.989-0.888-1.854-2.207-1.717-4.249c0.095-1.427,0.695-2.346,1.446-3.104
			C5.125,4.451,6.102,3.818,7.488,3.691z M4.957,5.288C5.07,5.517,5.301,5.627,5.439,5.831C5.326,5.949,5.24,6.093,5.077,6.162
			C4.914,5.993,4.778,5.798,4.565,5.68C3.979,6.409,3.521,7.268,3.42,8.482c0.241,0,0.482,0,0.723,0
			c-0.02,0.151,0.04,0.381-0.03,0.482c-0.221,0.02-0.522-0.04-0.693,0.03c0.111,1.195,0.562,2.05,1.145,2.772
			c0.229-0.113,0.339-0.344,0.542-0.482c0.119,0.112,0.263,0.199,0.332,0.362c-0.169,0.162-0.364,0.299-0.482,0.512
			c0.73,0.586,1.588,1.044,2.802,1.146c0-0.241,0-0.482,0-0.724c0.151,0.02,0.381-0.039,0.482,0.03
			c0.02,0.221-0.04,0.521,0.03,0.693c1.193-0.113,2.052-0.56,2.772-1.146c-0.113-0.229-0.344-0.339-0.481-0.542
			c0.112-0.119,0.199-0.264,0.361-0.332c0.163,0.169,0.299,0.364,0.513,0.482c0.585-0.73,1.043-1.588,1.145-2.802
			c-0.241,0-0.482,0-0.723,0c0.02-0.151-0.04-0.381,0.029-0.482c0.222-0.02,0.522,0.04,0.693-0.03
			c-0.112-1.194-0.561-2.051-1.145-2.772c-0.229,0.113-0.34,0.344-0.543,0.482C10.774,6.049,10.63,5.963,10.562,5.8
			c0.168-0.163,0.363-0.299,0.481-0.512C10.315,4.7,9.455,4.245,8.241,4.143c0,0.241,0,0.482,0,0.723
			c-0.151-0.02-0.381,0.04-0.482-0.03c-0.02-0.221,0.04-0.522-0.03-0.693C6.533,4.252,5.681,4.707,4.957,5.288z"/>
		<path fill-rule="evenodd" clip-rule="evenodd" fill="#FFFFFF" d="M7.729,4.143c0.07,0.171,0.01,0.472,0.03,0.693
			c0.101,0.07,0.331,0.011,0.482,0.03c0-0.241,0-0.482,0-0.723c1.214,0.102,2.074,0.557,2.802,1.145
			c-0.118,0.213-0.313,0.349-0.481,0.512c0.068,0.163,0.213,0.249,0.331,0.362c0.203-0.138,0.314-0.369,0.543-0.482
			c0.584,0.722,1.032,1.579,1.145,2.772c-0.171,0.07-0.472,0.01-0.693,0.03c-0.069,0.101-0.01,0.331-0.029,0.482
			c0.24,0,0.481,0,0.723,0c-0.102,1.214-0.56,2.072-1.145,2.802c-0.214-0.118-0.35-0.313-0.513-0.482
			c-0.162,0.068-0.249,0.213-0.361,0.332c0.138,0.203,0.368,0.313,0.481,0.542c-0.72,0.586-1.579,1.032-2.772,1.146
			c-0.07-0.172-0.01-0.473-0.03-0.693C8.14,12.541,7.91,12.6,7.759,12.58c0,0.241,0,0.482,0,0.724
			c-1.214-0.102-2.072-0.56-2.802-1.146c0.119-0.213,0.313-0.35,0.482-0.512c-0.069-0.163-0.213-0.25-0.332-0.362
			c-0.204,0.139-0.314,0.369-0.542,0.482c-0.583-0.723-1.034-1.577-1.145-2.772c0.171-0.07,0.472-0.01,0.693-0.03
			c0.07-0.101,0.011-0.331,0.03-0.482c-0.241,0-0.482,0-0.723,0C3.521,7.268,3.979,6.409,4.565,5.68
			c0.213,0.119,0.349,0.313,0.512,0.482C5.24,6.093,5.326,5.949,5.439,5.831C5.301,5.627,5.07,5.517,4.957,5.288
			C5.681,4.707,6.533,4.252,7.729,4.143z M8.723,8.03C8.517,6.961,9.186,5.179,7.879,5.348C6.928,5.472,7.383,7.031,7.277,8.06
			c-0.345,0.351-0.28,1.083,0.06,1.386c0.141,0.126,0.33,0.096,0.573,0.241c0.533,0.319,1.036,1.437,1.717,1.477
			c0.477,0.028,0.866-0.297,0.813-0.844c-0.066-0.7-1.223-1.199-1.476-1.718C8.958,8.377,8.768,8.26,8.723,8.03z"/>
		<path fill-rule="evenodd" clip-rule="evenodd" d="M8.964,8.603c0.253,0.519,1.41,1.018,1.476,1.718
			c0.053,0.547-0.337,0.872-0.813,0.844c-0.682-0.04-1.185-1.157-1.717-1.477C7.667,9.542,7.478,9.572,7.337,9.446
			c-0.34-0.303-0.405-1.036-0.06-1.386c0.106-1.029-0.349-2.588,0.603-2.712C9.186,5.179,8.517,6.961,8.723,8.03
			C8.768,8.26,8.958,8.377,8.964,8.603z M8.121,5.861c-0.569-0.316-0.334,1.5-0.332,1.928c0.086-0.055,0.363-0.043,0.452,0
			C8.088,7.238,8.499,6.07,8.121,5.861z M7.518,8.723c0,0.655,0.994,0.621,0.964-0.03C8.47,8.423,8.291,8.202,7.91,8.271
			C7.651,8.318,7.518,8.452,7.518,8.723z M8.482,9.597c0.212,0.168,0.346,0.347,0.573,0.573c0.183,0.183,0.838,0.866,0.904,0.271
			c0.037-0.334-0.967-0.977-1.115-1.235C8.764,9.377,8.6,9.464,8.482,9.597z"/>
		<path fill-rule="evenodd" clip-rule="evenodd" fill="#D29366" d="M8.241,7.789c-0.089-0.043-0.366-0.055-0.452,0
			C7.786,7.361,7.552,5.545,8.121,5.861C8.499,6.07,8.088,7.238,8.241,7.789z"/>
		<path fill-rule="evenodd" clip-rule="evenodd" fill="#CCD0DF" d="M7.91,8.271c0.381-0.069,0.56,0.152,0.572,0.422
			c0.03,0.651-0.964,0.685-0.964,0.03C7.518,8.452,7.651,8.318,7.91,8.271z"/>
		<path fill-rule="evenodd" clip-rule="evenodd" fill="#D29366" d="M8.844,9.205c0.148,0.259,1.152,0.901,1.115,1.235
			c-0.066,0.596-0.722-0.088-0.904-0.271C8.828,9.943,8.694,9.765,8.482,9.597C8.6,9.464,8.764,9.377,8.844,9.205z"/>
		<path fill-rule="evenodd" clip-rule="evenodd" fill="#D29366" d="M3.51,13.454c0.271,0.23,0.535,0.469,0.844,0.663
			c-0.416,0.388-0.853,0.754-1.296,1.114c-0.141,0-0.281,0-0.422,0C2.908,14.619,3.222,14.05,3.51,13.454z"/>
		<path fill-rule="evenodd" clip-rule="evenodd" fill="#D29366" d="M12.46,13.454c0.338,0.556,0.615,1.172,0.903,1.777
			c-0.545,0.093-0.764-0.293-1.055-0.542c-0.243-0.209-0.457-0.375-0.662-0.542C11.903,13.902,12.233,13.729,12.46,13.454z"/>
	</g>
</g>
<g id="_x31_">
	<g>
		<defs>
			<circle id="SVGID_1_" cx="7.999" cy="8.724" r="4.671"/>
		</defs>
		<clipPath id="SVGID_2_">
			<use xlink:href="#SVGID_1_"  overflow="visible"/>
		</clipPath>
		<polygon clip-path="url(#SVGID_2_)" fill="#DE1C16" points="8,3.261 12.722,5.987 8,8.713 		"/>
	</g>
</g>
<g id="_x32_">
	<g>
		<defs>
			<circle id="SVGID_3_" cx="7.999" cy="8.724" r="4.671"/>
		</defs>
		<clipPath id="SVGID_4_">
			<use xlink:href="#SVGID_3_"  overflow="visible"/>
		</clipPath>
		<polygon clip-path="url(#SVGID_4_)" fill="#E25616" points="12.722,11.439 8,8.713 12.722,5.987 		"/>
	</g>
</g>
<g id="_x33_">
	<g>
		<defs>
			<circle id="SVGID_5_" cx="7.999" cy="8.724" r="4.671"/>
		</defs>
		<clipPath id="SVGID_6_">
			<use xlink:href="#SVGID_5_"  overflow="visible"/>
		</clipPath>
		<polygon clip-path="url(#SVGID_6_)" fill="#F29219" points="8,8.713 12.722,11.439 8,14.164 		"/>
	</g>
</g>
<g id="_x34_">
	<g>
		<defs>
			<circle id="SVGID_7_" cx="7.999" cy="8.724" r="4.671"/>
		</defs>
		<clipPath id="SVGID_8_">
			<use xlink:href="#SVGID_7_"  overflow="visible"/>
		</clipPath>
		<polygon clip-path="url(#SVGID_8_)" fill="#E2CC20" points="8,14.164 3.279,11.439 8,8.713 		"/>
	</g>
</g>
<g id="_x35_">
	<g>
		<defs>
			<circle id="SVGID_9_" cx="7.999" cy="8.724" r="4.671"/>
		</defs>
		<clipPath id="SVGID_10_">
			<use xlink:href="#SVGID_9_"  overflow="visible"/>
		</clipPath>
		<polygon clip-path="url(#SVGID_10_)" fill="#C3D835" points="3.279,5.987 8,8.713 3.279,11.439 		"/>
	</g>
</g>
<g id="_x36_" display="none">
	<g display="inline">
		<defs>
			<circle id="SVGID_11_" cx="7.999" cy="8.724" r="4.671"/>
		</defs>
		<clipPath id="SVGID_12_">
			<use xlink:href="#SVGID_11_"  overflow="visible"/>
		</clipPath>
		<polygon clip-path="url(#SVGID_12_)" fill="#79BD2D" points="8,8.713 3.279,5.987 8,3.261 		"/>
	</g>
</g>
<g id="레이어_1_사본">
	<g>
		<path fill-rule="evenodd" clip-rule="evenodd" d="M7.488,3.691c1.629-0.15,3.011,0.447,3.857,1.206
			c0.832,0.747,1.604,1.901,1.718,3.345c0.13,1.662-0.427,2.926-1.235,3.826c-0.797,0.888-1.913,1.606-3.345,1.718
			c-1.502,0.117-2.904-0.407-3.827-1.235c-0.989-0.888-1.854-2.207-1.717-4.249c0.095-1.427,0.695-2.346,1.446-3.104
			C5.125,4.451,6.102,3.818,7.488,3.691z M4.957,5.288C5.07,5.517,5.301,5.627,5.439,5.831C5.326,5.949,5.24,6.093,5.077,6.162
			C4.914,5.993,4.778,5.798,4.565,5.68C3.979,6.409,3.521,7.268,3.42,8.482c0.241,0,0.482,0,0.723,0
			c-0.02,0.151,0.04,0.381-0.03,0.482c-0.221,0.02-0.522-0.04-0.693,0.03c0.111,1.195,0.562,2.05,1.145,2.772
			c0.229-0.113,0.339-0.344,0.542-0.482c0.119,0.112,0.263,0.199,0.332,0.362c-0.169,0.162-0.364,0.299-0.482,0.512
			c0.73,0.586,1.588,1.044,2.802,1.146c0-0.241,0-0.482,0-0.724c0.151,0.02,0.381-0.039,0.482,0.03
			c0.02,0.221-0.04,0.521,0.03,0.693c1.193-0.113,2.052-0.56,2.772-1.146c-0.113-0.229-0.344-0.339-0.481-0.542
			c0.112-0.119,0.199-0.264,0.361-0.332c0.163,0.169,0.299,0.364,0.513,0.482c0.585-0.73,1.043-1.588,1.145-2.802
			c-0.241,0-0.482,0-0.723,0c0.02-0.151-0.04-0.381,0.029-0.482c0.222-0.02,0.522,0.04,0.693-0.03
			c-0.112-1.194-0.561-2.051-1.145-2.772c-0.229,0.113-0.34,0.344-0.543,0.482C10.774,6.049,10.63,5.963,10.562,5.8
			c0.168-0.163,0.363-0.299,0.481-0.512C10.315,4.7,9.455,4.245,8.241,4.143c0,0.241,0,0.482,0,0.723
			c-0.151-0.02-0.381,0.04-0.482-0.03c-0.02-0.221,0.04-0.522-0.03-0.693C6.533,4.252,5.681,4.707,4.957,5.288z"/>
		<path fill-rule="evenodd" clip-rule="evenodd" d="M8.964,8.603c0.253,0.519,1.41,1.018,1.476,1.718
			c0.053,0.547-0.337,0.872-0.813,0.844c-0.682-0.04-1.185-1.157-1.717-1.477C7.667,9.542,7.478,9.572,7.337,9.446
			c-0.34-0.303-0.405-1.036-0.06-1.386c0.106-1.029-0.349-2.588,0.603-2.712C9.186,5.179,8.517,6.961,8.723,8.03
			C8.768,8.26,8.958,8.377,8.964,8.603z M8.121,5.861c-0.569-0.316-0.334,1.5-0.332,1.928c0.086-0.055,0.363-0.043,0.452,0
			C8.088,7.238,8.499,6.07,8.121,5.861z M7.518,8.723c0,0.655,0.994,0.621,0.964-0.03C8.47,8.423,8.291,8.202,7.91,8.271
			C7.651,8.318,7.518,8.452,7.518,8.723z M8.482,9.597c0.212,0.168,0.346,0.347,0.573,0.573c0.183,0.183,0.838,0.866,0.904,0.271
			c0.037-0.334-0.967-0.977-1.115-1.235C8.764,9.377,8.6,9.464,8.482,9.597z"/>
		<path fill-rule="evenodd" clip-rule="evenodd" fill="#D29366" d="M8.241,7.789c-0.089-0.043-0.366-0.055-0.452,0
			C7.786,7.361,7.552,5.545,8.121,5.861C8.499,6.07,8.088,7.238,8.241,7.789z"/>
		<path fill-rule="evenodd" clip-rule="evenodd" fill="#CCD0DF" d="M7.91,8.271c0.381-0.069,0.56,0.152,0.572,0.422
			c0.03,0.651-0.964,0.685-0.964,0.03C7.518,8.452,7.651,8.318,7.91,8.271z"/>
		<path fill-rule="evenodd" clip-rule="evenodd" fill="#D29366" d="M8.844,9.205c0.148,0.259,1.152,0.901,1.115,1.235
			c-0.066,0.596-0.722-0.088-0.904-0.271C8.828,9.943,8.694,9.765,8.482,9.597C8.6,9.464,8.764,9.377,8.844,9.205z"/>
	</g>
</g>
</svg>
