<?xml version="1.0" encoding="utf-8"?>
<!-- Generator: Adobe Illustrator 15.0.0, SVG Export Plug-In . SVG Version: 6.00 Build 0)  -->
<!DOCTYPE svg PUBLIC "-//W3C//DTD SVG 1.1//EN" "http://www.w3.org/Graphics/SVG/1.1/DTD/svg11.dtd">
<svg version="1.1" xmlns="http://www.w3.org/2000/svg" xmlns:xlink="http://www.w3.org/1999/xlink" x="0px" y="0px" width="120px"
	 height="120px" viewBox="0 0 120 120" enable-background="new 0 0 120 120" xml:space="preserve">
<g id="레이어_9">
	<path fill-rule="evenodd" clip-rule="evenodd" fill="#F18C1A" d="M59.875,70.667h24.958h28.084l-8.209-28.086l-6.291-18.914
		c0,0-0.583-1.625-2.75-2.333L83.292,14.5L77.25,2.083c0,0-0.751-2.06-3.042-2.083H59.875V70.667z"/>
	<path fill-rule="evenodd" clip-rule="evenodd" fill="#F18C1A" d="M7.125,70.667v-38.25c0,0,0-2,1.25-2.979l13.938-14.063
		c0,0,0.438-0.875,1.688-0.875h20.25l-3.813,56.167H7.125z"/>
</g>
<g id="레이어_8">
	<path fill-rule="evenodd" clip-rule="evenodd" fill="#DA6522" d="M84.833,70.667h28.084v-25.25c0,0,0.124-2.833-3.084-2.833h-8
		c0,0-1,0.042-1.875,0.875L85.708,57.75c0,0-0.875,0.667-0.875,1.875V70.667z"/>
	<path fill-rule="evenodd" clip-rule="evenodd" fill="#DA6522" d="M83.292,14.5H66.458c0,0-2.916,0.25-2.916,3.333
		c0,0-0.208,3.5,2.375,3.5h29.75L83.292,14.5z"/>
</g>
<g id="레이어_10">
	<path fill-rule="evenodd" clip-rule="evenodd" fill="#F6B14E" d="M21.25,70.667V39c0,0,0.084-1.667,1.667-2.75l13.25-7l13.5-27.167
		c0,0,1-2.06,3.083-2.083h7.125v70.667H21.25z"/>
</g>
<g id="레이어_3_사본_3">
	<g>
		<path fill-rule="evenodd" clip-rule="evenodd" fill="#52433E" d="M59.833,119.976c11.008,0,21.347,0,32.355,0
			c1.444-0.672,2.69-1.541,2.825-3.516c-0.014-1.549-0.977-2.152-1.648-3.047c-2.394-0.898-6.299-0.293-9.419-0.469
			c-0.572-2.087-0.889-4.429-1.178-6.797c1.723-0.629,4.842,0.132,6.594-0.469c0.958-0.766,1.931-1.516,2.119-3.047
			c0.077-1.717-0.94-2.345-1.648-3.281c-2.048-0.853-5.483-0.323-8.242-0.469c-0.572-2.087-0.888-4.429-1.178-6.797
			c1.591-0.604,4.566,0.169,5.888-0.703c0.644-0.844,1.527-1.449,1.648-2.813c0.065-4.205-4.418-3.884-8.713-3.75
			c-0.572-2.087-0.889-4.429-1.178-6.797c9.629-0.427,20.382-0.234,30.614-0.234c3.278,0,6.649,0.328,9.655-0.469
			c0.6-0.73,1.282-1.38,1.648-2.344c0-0.469,0-0.938,0-1.406c-0.586-1.37-1.494-2.42-3.062-2.813c-13.188,0-26.375,0-39.563,0
			c0-7.031,0-14.062,0-21.093c3.801,0.267,6.933-0.132,7.064-3.516c-0.083-2.027-1.362-2.863-2.826-3.516c-7.26,0-14.298,0-21.757,0
			v35.156c3.887,0,7.273,0,11.161,0c0.073,2.583,0.868,4.448,0.941,7.031c-4.173,0-7.929,0-12.102,0v7.031c4.65,0,8.629,0,13.28,0
			c0.563,2.174,0.952,4.521,1.178,7.031c-4.986,0-9.471,0-14.458,0v7.031c5.435,0,10.201,0,15.634,0
			c0.564,2.174,0.953,4.521,1.178,7.031c-5.827,0-10.984,0-16.812,0V119.976z"/>
		<g>
		</g>
	</g>
</g>
<g id="레이어_3">
	<g>
		<path fill-rule="evenodd" clip-rule="evenodd" fill="#705B56" d="M59.833,119.976c-10.956,0-21.246,0-32.201,0
			c-1.438-0.672-2.678-1.541-2.813-3.516c0.014-1.549,0.973-2.152,1.641-3.047c2.382-0.898,6.27-0.293,9.375-0.469
			c0.569-2.087,0.884-4.429,1.172-6.797c-1.715-0.629-4.819,0.132-6.563-0.469c-0.953-0.766-1.921-1.516-2.109-3.047
			c-0.076-1.717,0.936-2.345,1.641-3.281c2.038-0.853,5.458-0.323,8.203-0.469c0.569-2.087,0.884-4.429,1.172-6.797
			c-1.583-0.604-4.544,0.169-5.859-0.703c-0.641-0.844-1.52-1.449-1.641-2.813c-0.065-4.205,4.397-3.884,8.672-3.75
			c0.569-2.087,0.884-4.429,1.172-6.797c-9.583-0.427-20.285-0.234-30.469-0.234c-3.263,0-6.619,0.328-9.609-0.469
			c-0.597-0.73-1.276-1.38-1.641-2.344c0-0.469,0-0.938,0-1.406c0.583-1.37,1.486-2.42,3.047-2.813c13.125,0,26.25,0,39.375,0
			c0-7.031,0-14.062,0-21.093c-3.783,0.267-6.9-0.132-7.031-3.516c0.082-2.027,1.356-2.863,2.813-3.516c7.225,0,14.23,0,21.654,0
			v35.156c-3.869,0-7.238,0-11.107,0c-0.073,2.583-0.864,4.448-0.938,7.031c4.153,0,7.891,0,12.045,0v7.031
			c-4.628,0-8.589,0-13.217,0c-0.561,2.174-0.948,4.521-1.172,7.031c4.962,0,9.426,0,14.389,0v7.031c-5.409,0-10.152,0-15.561,0
			c-0.561,2.174-0.948,4.521-1.172,7.031c5.799,0,10.933,0,16.732,0V119.976z"/>
		<g>
		</g>
	</g>
</g>
</svg>
