<?xml version="1.0" encoding="utf-8"?>
<!-- Generator: Adobe Illustrator 15.0.0, SVG Export Plug-In . SVG Version: 6.00 Build 0)  -->
<!DOCTYPE svg PUBLIC "-//W3C//DTD SVG 1.1//EN" "http://www.w3.org/Graphics/SVG/1.1/DTD/svg11.dtd">
<svg version="1.1" id="레이어_2" xmlns="http://www.w3.org/2000/svg" xmlns:xlink="http://www.w3.org/1999/xlink" x="0px"
	 y="0px" width="16px" height="16px" viewBox="0 0 16 16" enable-background="new 0 0 16 16" xml:space="preserve">
<g>
	<path fill="#EFDC51" stroke="#000000" stroke-width="0.2" stroke-miterlimit="10" d="M6.508,4.263c0,1.268-0.597,1.901-1.791,1.901
		H4.644c-1.194,0-1.792-0.706-1.792-2.118c0-2.63,1.435-3.946,4.307-3.946h1.792c2.087,0,3.397,0.83,3.926,2.489
		c0.531,1.659,0.277,3.073-0.759,4.243l-2.354,2.68c0,1.11-0.622,1.664-1.863,1.664H7.793c-1.243,0-1.865-0.554-1.865-1.664V9.331
		c0-0.398,0.163-0.79,0.49-1.176l2.189-2.499c0.604-0.699,0.856-1.288,0.759-1.764c-0.096-0.477-0.439-0.715-1.03-0.715h-0.58
		c-0.422,0-0.736,0.109-0.941,0.326C6.611,3.72,6.508,3.974,6.508,4.263z M9.784,14.037c0,1.242-0.621,1.863-1.864,1.863H7.775
		c-1.243,0-1.864-0.621-1.864-1.863v-0.182c0-1.243,0.621-1.864,1.864-1.864H7.92c1.243,0,1.864,0.621,1.864,1.864V14.037z"/>
</g>
</svg>
