/* XPM */
static char *_7078d26c31c444bc8007c387535810awC38Ezl8jvemG7ZT[] = {
/* columns rows colors chars-per-pixel */
"64 64 174 2 ",
"   c None",
".  c #00090E",
"X  c #000D12",
"o  c #001116",
"O  c #01151B",
"+  c #0A151A",
"@  c #03191E",
"#  c #0B1A1E",
"$  c #001720",
"%  c #011B23",
"&  c #0B1D23",
"*  c #031F28",
"=  c #131F24",
"-  c #052027",
";  c #0E2127",
":  c #04232C",
">  c #0A242B",
",  c #0C282F",
"<  c #132126",
"1  c #182227",
"2  c #13252A",
"3  c #18272B",
"4  c #14292F",
"5  c #1A2A2E",
"6  c #072730",
"7  c #082730",
"8  c #072831",
"9  c #0B2A33",
"0  c #132B33",
"q  c #1C2F35",
"w  c #112F38",
"e  c #163037",
"r  c #1F3137",
"t  c #143139",
"y  c #1B343C",
"u  c #212F36",
"i  c #223136",
"p  c #243439",
"a  c #24393E",
"s  c #29393F",
"d  c #1D3942",
"f  c #243C43",
"g  c #2A3D43",
"h  c #343E43",
"j  c #2E4146",
"k  c #27434A",
"l  c #2B444B",
"z  c #334246",
"x  c #394246",
"c  c #34464B",
"v  c #3B464A",
"b  c #33484E",
"n  c #3B494E",
"m  c #2F4951",
"M  c #354C53",
"N  c #3C4E54",
"B  c #3C5056",
"V  c #3B5359",
"C  c #414B4F",
"Z  c #444E52",
"A  c #465054",
"S  c #495357",
"D  c #44545A",
"F  c #4A565A",
"G  c #47585D",
"H  c #495A5E",
"J  c #455B62",
"K  c #4A5D62",
"L  c #535D61",
"P  c #4E6166",
"I  c #4D6369",
"U  c #546165",
"Y  c #5A6367",
"T  c #53646A",
"R  c #55696F",
"E  c #5B696E",
"W  c #556A70",
"Q  c #5D6D72",
"!  c #5D7176",
"~  c #636B6F",
"^  c #646D71",
"/  c #627175",
"(  c #687174",
")  c #647579",
"_  c #6C767A",
"`  c #67787C",
"'  c #6C797D",
"]  c #727A7D",
"[  c #677A80",
"{  c #6C7C82",
"}  c #707E82",
"|  c #6F8287",
" . c #738185",
".. c #7B8386",
"X. c #748489",
"o. c #7B8689",
"O. c #7D8A8D",
"+. c #7C8C91",
"@. c #7F9094",
"#. c #81878A",
"$. c #838A8D",
"%. c #888D8F",
"&. c #838E91",
"*. c #898F91",
"=. c #859195",
"-. c #8A9294",
";. c #869599",
":. c #8A969A",
">. c #8D999C",
",. c #939B9E",
"<. c #989D9F",
"1. c #8E9BA0",
"2. c #959EA1",
"3. c #999EA0",
"4. c #96A1A4",
"5. c #9BA2A4",
"6. c #9BA6A9",
"7. c #9FA9AC",
"8. c #A2A5A7",
"9. c #A2A6A8",
"0. c #A4AAAC",
"q. c #A8ACAE",
"w. c #A4AEB1",
"e. c #ABAFB1",
"r. c #A7B1B4",
"t. c #ACB2B4",
"y. c #AEB6B9",
"u. c #AFB9BC",
"i. c #B2B4B6",
"p. c #B3B7B9",
"a. c #B4BBBD",
"s. c #BABDBF",
"d. c #B6BEC1",
"f. c #B9BFC1",
"g. c #B7C0C2",
"h. c #BCC2C3",
"j. c #BFC6C8",
"k. c #BFC6C8",
"l. c #C3C4C5",
"z. c #C3C6C6",
"x. c #C4C6C7",
"c. c #C2C5C6",
"v. c #C2C7C8",
"b. c #C2C8CA",
"n. c #C6C8C9",
"m. c #C4C9CA",
"M. c #C8CACB",
"N. c #CBCCCD",
"B. c #CCCDCD",
"V. c #C9CBCC",
"C. c #CDD2D2",
"Z. c #CDD1D2",
"A. c #D1D2D3",
"S. c #D6D6D7",
"D. c #D4D5D5",
"F. c #D4D5D5",
"G. c #D7D7D8",
"H. c #D6D7D8",
"J. c #D7D8D9",
"K. c #D6D8D9",
"L. c #D9D9DA",
"P. c #DCDDDD",
"I. c #DDDEDE",
"U. c #DBDBDC",
"Y. c #DFDFE0",
"T. c #DFDFE0",
"R. c #DFE0E0",
"E. c #DFE0E1",
"W. c #E0E1E2",
"Q. c #E1E3E4",
"!. c #E2E3E4",
"~. c gray93",
"^. c #E9EBEC",
"/. c #F0F1F2",
/* pixels */
"                                                    @ @ O O O O O O O @ @ @                                                     ",
"                                            @ @ O o X . X + & & & # O X . . o O @ O                                             ",
"                                        @ O . X < v _ <.e.s.z.x.v.c.s.t.<._ C < X X O O                                         ",
"                                  @ & X . 3 ~ q.A.z.0.%.^ F N l c n D ~ &.0.c.A.q.~ 3 . X % #                                   ",
"                                O X X h 5.S.p.{ j > % % % - : : : : - % % % ; j ' p.G.8.x X o O                                 ",
"                            @ O . h i.G.-.g % % : 9 9 9 9 9 9 9 9 9 9 9 9 9 9 : % % g *.G.i.h . O @                             ",
"                          @ X = ,.P.$.0 O > 9 9 9 9 9 9 9 9 9 9 9 9 9 9 9 9 9 9 9 9 : $ 5 #.P.<.< X @                           ",
"                      @ O . Z D.q.i O 6 9 9 9 9 9 9 9 9 9 9 9 9 9 9 9 9 9 9 9 9 9 9 9 9 6 $ i 0.D.S . O @                       ",
"                    @ O X #.T.Y O : 9 9 9 9 9 9 9 9 9 9 9 9 9 9 9 9 9 9 9 9 9 9 9 9 9 9 9 9 6 $ L W.#.X O %                     ",
"                  @ X + 9.N.p $ 9 9 9 9 9 9 9 9 9 9 9 9 9 9 9 9 9 9 9 9 9 9 9 9 9 9 9 9 9 9 9 9 % i M.q.+ o @                   ",
"                @ o # s.p.; - 9 9 9 9 9 9 9 9 9 9 9 9 9 9 9 9 9 9 9 9 9 9 9 9 9 9 9 9 9 9 9 9 9 0 : = i.s.# X %                 ",
"              @ O + s.q.% 6 9 9 9 9 9 9 9 9 9 9 9 9 9 9 9 9 9 9 9 9 9 9 9 9 9 9 9 9 9 9 9 9 9 9 9 9 > O q.s.+ O @               ",
"              O X 0.i.% > 9 9 9 9 9 9 9 9 9 9 9 9 9 9 9 9 9 9 9 9 9 9 9 9 9 9 9 9 9 9 9 9 9 9 9 9 9 9 6 % i.q.X O               ",
"            @ . o.N.; : 9 9 9 9 9 9 9 9 8 J w.f 6 9 9 9 9 : 6 9 9 9 9 9 9 9 9 9 9 9 9 9 9 9 9 9 9 9 9 9 6 & M.$.. @             ",
"          @ X A W.p - w 9 6 9 9 9 9 9 9 8 ;.~.O.: : 6 : w ! J 9 9 9 9 9 9 9 9 9 9 9 9 9 9 9 9 9 9 9 9 9 9 - i W.S X @           ",
"          O = L.Y $ w +.y.B 9 9 9 9 9 9 9 4.2.y.J V V V 4.W.0.> 6 9 9 9 9 9 9 9 9 9 9 9 9 9 9 9 9 9 9 9 9 9 % U L.< +           ",
"        @ . ,.q.O 6 m k.2.f.f 6 9 9 9 7 7 :.C.y.w.r.y.x.&.,.=.- 9 9 9 9 9 9 9 9 9 9 9 9 9 9 9 9 9 9 9 9 9 9 9 O 9.2.X O         ",
"      @ X h I.i 6 6 m y.g y.K : 9 9 7 6 l d.;.q q q y f 0 0.R * 9 9 9 9 9 9 9 9 9 9 9 9 9 9 9 9 9 9 9 9 9 9 9 6 q I.x X @       ",
"      @ X t.$.O 9 8 f y.b 4./ * 9 9 8 m g.&.; : 8 8 : : f d.c - 9 9 9 9 9 9 9 9 0 9 9 9 9 9 9 9 9 9 9 9 9 9 9 w $ ..p.X @       ",
"      o x L.0 6 9 8 d r.N } 7.> 8 8 M f.O.; : 9 9 9 9 6 k u.j : 9 9 9 9 9 9 9 9 9 9 9 9 9 9 9 9 9 9 9 9 9 9 9 9 8 4 G.v X       ",
"    O . 5.-.O 9 9 8 w t.K y f.Q : 6 } w.* > 9 9 9 9 9 6 d t.B - 9 9 9 9 9 9 9 9 9 9 9 9 9 9 9 9 9 9 9 9 9 9 9 9 9 $ %.9.X @     ",
"    O 3 G.g : 9 9 8 9 ,.>.* P m.k * W q.> 9 9 8 6 6 6 6 d y.V : 9 9 9 9 9 9 9 9 9 9 9 9 9 9 9 9 9 9 9 9 9 9 9 9 9 - g S.5 O     ",
"  @ X ~ a.% 9 9 9 9 8 k h.E - +.f.k l k.D : 8 > d m l t l a.k : 9 9 9 9 9 9 9 9 9 9 9 9 9 9 9 9 9 9 9 9 9 9 9 9 9 9 % p.( X @   ",
"  @ X e.} % 9 9 9 9 9 6 P m.l : o.h.V Q f.V m +.d.d.f.R k a.g : 9 9 9 9 9 9 9 9 9 9 9 9 9 9 9 9 9 9 9 9 9 9 9 9 9 9 % _ t.X @   ",
"  O < F.g 6 9 9 9 9 9 8 8 O.t.0 : ) v.&.d.Z.d.2.D f g q t t.T - 9 9 9 9 9 9 9 9 9 9 9 9 9 9 9 9 9 9 9 9 9 9 9 9 9 9 : g A.< O   ",
"  X n m.> 9 9 9 9 9 9 9 8 w w.,.9 - J =.$._ g > - : : : : ;.&.- 9 9 9 9 9 9 9 9 9 9 9 9 9 9 9 9 9 9 9 9 9 9 9 9 9 9 9 > v.Z o   ",
"@ X _ q.% 9 9 9 9 9 9 9 9 6 f d.+.> : - * * : 9 9 9 9 9 : P a.y 9 9 9 9 9 9 9 9 9 9 9 9 9 9 9 9 9 9 9 9 9 9 9 9 9 9 9 % 0.] X O ",
"@ . <.%.% 9 9 9 9 9 9 9 9 9 : l c.{ : 9 8 9 9 9 9 9 9 9 9 t r.X.- 8 9 9 9 9 9 9 9 9 9 9 9 9 9 9 9 9 9 9 9 9 9 9 9 9 9 % $.5.. % ",
"@ X t.~ % 9 9 9 9 9 9 9 9 9 9 : M m.^ : 9 9 9 9 9 9 9 9 9 6 V b. .t 6 8 9 9 9 9 9 9 9 9 9 9 9 9 9 9 9 9 9 9 9 9 9 9 9 * ~ t.X @ ",
"O O s.G - 9 9 9 9 9 9 9 9 9 9 9 : J m.T : 6 8 9 9 9 9 9 9 9 8 B y.r.D 8 9 9 9 9 9 9 9 9 9 9 9 9 9 9 9 9 9 9 9 9 9 9 9 - A f.O @ ",
"@ # l.n : 9 9 9 9 9 9 9 9 9 9 9 9 : T k.Q k y 8 8 9 9 9 9 9 9 : 0 } k.X.0 6 9 9 9 9 9 9 9 9 9 9 9 9 9 9 9 9 9 9 9 9 9 : v z.# @ ",
"O & x.c : 9 9 9 9 9 9 9 9 9 9 9 9 6 w 6.Z.k.y.;.V 9 : 9 9 9 9 9 8 : b d.:.0 8 9 9 9 9 9 9 9 9 9 9 9 9 9 9 9 9 9 9 9 9 : j N.& O ",
"O & n.c : 9 9 9 9 9 9 9 9 9 9 9 9 8 k y.) a.U &.h.5.K w 9 9 9 9 9 9 : f y.;.0 8 9 9 9 9 9 9 9 9 9 9 9 9 9 9 9 9 9 9 9 6 g N.& O ",
"O # l.M - 9 9 9 9 9 9 9 9 9 9 9 9 8 V y.g t.G % f X.h.Q : 9 9 9 9 9 9 > f k.E * 9 9 9 9 9 9 9 9 9 9 9 9 9 9 9 9 9 9 7 6 b x.& O ",
"O O f.F - 9 9 9 9 9 9 9 9 9 9 9 9 6 R 0.> X.2.- : > a f 8 8 6 9 9 9 9 8 : ! t.0 8 9 9 9 9 9 9 9 9 9 9 9 9 9 9 9 9 9 9 * A f.O O ",
"@ X e.Q * 9 9 9 9 9 9 9 9 9 9 9 9 : [ 2.- b b.B : 9 : : 6 l V 9 9 9 9 9 6 d d.K : 9 9 9 9 9 9 9 9 9 9 9 9 9 9 9 9 9 9 * E p.X @ ",
"@ . <.&.% 9 9 9 9 9 9 9 9 9 9 9 9 : @.$.% 6 { k.k 6 6 d +.k.} > 9 9 9 9 7 6 ;.&.* 9 9 9 9 9 9 9 9 9 9 9 9 9 9 9 9 9 9 $ $.6.. O ",
"@ X _ q.% 9 9 9 9 9 9 9 9 9 9 9 9 9 4.` * 9 9 +.t.q d d.0.B , > 9 9 9 9 9 6 +.&.> 7 9 9 9 9 9 9 9 9 9 9 9 0 9 9 9 9 9 % q.] . @ ",
"  X C z.> 9 9 9 9 9 9 9 9 9 9 9 8 w w.R - 9 : V m.g 1.4.- * 6 9 9 9 9 9 8 6 +.=.* 9 9 9 9 9 9 9 9 9 9 9 9 9 9 9 9 9 9 * c.Z X   ",
"  O < D.z : 9 9 9 9 9 9 9 9 9 9 8 9 7.E - 8 : ;.-.M g.f - 9 9 9 9 9 9 9 8 6 ;.&.* 9 9 9 9 9 9 9 9 9 9 9 9 9 9 9 9 9 : g F.2 O   ",
"  % X t.] % 9 9 9 9 9 9 9 9 9 9 9 9 4./ - w ! k.c E 7.- 9 9 9 9 9 9 9 9 8 w t.E * 9 9 9 9 9 9 9 9 9 9 9 9 9 9 9 9 9 % _ t.X O   ",
"  @ . ^ p.@ 9 9 9 9 9 9 9 9 9 9 8 9 4.` % J K.g.0 { 5.> , 9 9 9 9 9 9 9 6 V d.y - 9 9 9 9 9 9 9 9 9 9 9 9 9 9 9 9 9 % p.( X @   ",
"    O 5 K.g : 9 9 9 9 9 9 9 9 9 9 8 >.' - 4.4.a.a M h.l - 8 9 9 9 9 9 9 8 X.h.K 9 6 6 6 8 8 8 9 9 9 9 9 9 9 9 9 9 : a L.5 O     ",
"    @ . 5.*.% 9 9 9 9 9 9 9 9 9 9 : ;. .l g.b 4.,.9 =.e.f 6 6 6 7 6 8 9 9 7.>.t.w./ J V m d t 9 8 : 6 9 9 9 9 9 9 % &.9.. @     ",
"      X c G.3 8 9 9 9 9 9 9 9 9 8 6 4.O.! 5.- y 0.4.B ;.f.O.J f y d w 9 7 4./ 4 { 0.w.t.a.y.t.6.>.o.V 8 6 9 9 9 > 4 G.n X       ",
"      @ . p.o.@ 9 9 9 9 9 9 9 9 9 X.k.H &.O.- 0 ` ^.2.) b.w.w.t.w.e.&.9 : :.>.0 - : 0 y g b D Q ' >.h.&.d 8 9 9 % ..p.X @       ",
"      @ X h I.i : 9 9 9 9 9 9 : I Q.O.T h.U % [ /.f.3.^.v.-.>.t.f.f.y.&.;.b.;.t.4.:.:.:.;.;.=.&.Q t l r.>.0 9 : q P.x X @       ",
"        @ . <.q.% 9 9 9 9 9 9 8 J t.0.t.=.0 : I :.&...X.o.$.O.o.o.o.O.&.&.Q q V ` ' ` ` } } { ..Z.:.% f k.b : O 9.5.X @         ",
"          O < G.Y $ 9 9 9 9 9 9 9 8 4 4 * > 9 8 > * > * * * * & * * * * * * 8 : * * : / 0.6.4.6.d./ % T l.a O L U.< O           ",
"          @ X S W.i - 9 9 9 9 9 9 9 8 8 8 9 9 9 8 9 9 9 , 9 9 9 9 9 9 9 8 9 9 9 9 9 9 y.Z.>.&. .E K @.m.E % u T.F X @           ",
"            @ . $.M.& > 9 9 9 9 9 9 9 9 9 9 9 9 9 9 9 9 9 9 9 9 9 9 9 9 9 9 9 9 9 9 9 m O.0.e.t.r.r.>.N % & m.%.. @             ",
"              O X q.i.% 9 9 9 9 9 9 9 9 9 9 9 9 9 9 9 9 9 9 9 9 9 9 9 9 9 9 9 9 9 9 9 6 - 0 y a y q - % O e.e.X O               ",
"              % + + s.9.% 6 9 9 9 9 9 9 9 9 9 9 9 9 9 9 9 9 9 9 9 9 9 9 9 9 9 9 9 9 9 9 8 8 8 > : 8 : % 9.f.# O @               ",
"                % X # s.t.& : 9 9 9 9 9 9 9 9 9 9 9 9 9 9 9 9 9 9 9 9 9 9 9 9 9 9 9 9 9 9 9 9 9 9 - & e.h.# o @                 ",
"                  @ O + q.n.i % 9 9 9 9 9 9 9 9 9 9 9 9 9 9 9 9 9 9 9 9 9 9 9 9 9 9 9 9 9 9 9 9 % i x.e.+ o @                   ",
"                    O O X %.W.L O : 9 9 9 9 9 9 9 9 9 9 9 9 9 9 9 9 9 9 9 9 9 9 9 9 9 9 9 9 6 O L T.*.X + @                     ",
"                      @ O . F S.9.u O 6 9 9 9 9 9 9 9 9 9 9 9 9 9 9 9 9 9 9 9 9 9 9 9 9 6 $ u 8.L.F . O @                       ",
"                          @ X 1 <.P.#.4 $ : 9 9 9 9 9 9 9 9 9 9 9 9 9 9 9 9 9 9 9 9 : % 4 ..P.3.1 X @                           ",
"                            @ O X x p.G.*.s % % : 9 9 9 9 9 9 9 9 9 9 9 9 9 9 6 % @ s $.F.p.x . o @                             ",
"                                @ X . v 9.D.i._ g * % % * - : : - : - * $ % * f _ i.S.9.v X X @                                 ",
"                                  @ @ X . 5 ^ e.F.l.9.$.~ A c z z c A ~ $.9.l.A.e.( 5 . o @ #                                   ",
"                                        @ O X X < Z ] 3.t.h.z.N.N.z.h.i.5.] C 2 X X O @                                         ",
"                                            @ @ O X X X X O # & & # O X . X X O @ @                                             ",
"                                                    @ O @ @ @ O O O @ @ @ @                                                     "
};
