/* XPM */
static char *_9822f88f31440d5a86e98c57fdfca37f3pIC9geGRFLQEPI[] = {
/* columns rows colors chars-per-pixel */
"32 32 144 2 ",
"   c None",
".  c #000C12",
"X  c #011116",
"o  c #02141B",
"O  c #0B1A1E",
"+  c #001720",
"@  c #001C25",
"#  c #0D1F25",
"$  c #011F29",
"%  c #0E2125",
"&  c #03232C",
"*  c #0A252E",
"=  c #122327",
"-  c #172429",
";  c #19252A",
":  c #1A2A2E",
">  c #072730",
",  c #0A2730",
"<  c #072831",
"1  c #0B2A33",
"2  c #122D35",
"3  c #1E2C31",
"4  c #16323B",
"5  c #1B363E",
"6  c #202C31",
"7  c #253337",
"8  c #253439",
"9  c #2D3A3E",
"0  c #1E3941",
"q  c #213B43",
"w  c #233F48",
"e  c #303D41",
"r  c #2C4047",
"t  c #254149",
"y  c #2C444B",
"u  c #31444B",
"i  c #3A474C",
"p  c #32494F",
"a  c #3F4C4F",
"s  c #344C53",
"d  c #3B4E54",
"f  c #3D545B",
"g  c #404D51",
"h  c #445154",
"j  c #4B5457",
"k  c #42555C",
"l  c #4C575A",
"z  c #45595F",
"x  c #4C5A5E",
"c  c #505C5F",
"v  c #435A61",
"b  c #4A5D63",
"n  c #4E6065",
"m  c #4E6369",
"M  c #596265",
"N  c #53666B",
"B  c #5E6669",
"V  c #55696E",
"C  c #5A686E",
"Z  c #5B6D73",
"A  c #5E7176",
"S  c #60666A",
"D  c #636A6D",
"F  c #626E72",
"G  c #637276",
"H  c #6B7375",
"J  c #66757A",
"K  c #6B767A",
"L  c #67797F",
"P  c #6A797E",
"I  c #70777A",
"U  c #72797C",
"Y  c #6C7C81",
"T  c #717C80",
"R  c #707F83",
"E  c #757E81",
"W  c #747F83",
"Q  c #767F82",
"!  c #707F84",
"~  c #707E82",
"^  c #738083",
"/  c #708084",
"(  c #718084",
")  c #758084",
"_  c #768185",
"`  c #758387",
"'  c #748184",
"]  c #7A8183",
"[  c #7A8184",
"{  c #798285",
"}  c #7A8386",
"|  c #7D8486",
" . c #7C8285",
".. c #758488",
"X. c #768488",
"o. c #778488",
"O. c #748488",
"+. c #78868B",
"@. c #79878B",
"#. c #7F878A",
"$. c #79878C",
"%. c #7B868A",
"&. c #7D898C",
"*. c #7E8C90",
"=. c #7F8C90",
"-. c #81898C",
";. c #808A8D",
":. c #838A8D",
">. c #858B8D",
",. c #838B8E",
"<. c #818D90",
"1. c #818D91",
"2. c #828C90",
"3. c #838C90",
"4. c #828D90",
"5. c #838F92",
"6. c #858D90",
"7. c #828D91",
"8. c #829093",
"9. c #869093",
"0. c #869094",
"q. c #869194",
"w. c #879194",
"e. c #869195",
"r. c #879395",
"t. c #879295",
"y. c #889395",
"u. c #899396",
"i. c #889294",
"p. c #8C9799",
"a. c #8E9A9D",
"s. c #919A9C",
"d. c #939C9F",
"f. c #919B9E",
"g. c #97A3A7",
"h. c #9BA3A6",
"j. c #9DA6A8",
"k. c #A0A8AA",
"l. c #A1A9AA",
"z. c #A2AAAD",
"x. c #A6AFB2",
"c. c #ABB1B3",
"v. c #B7BDBF",
"b. c #B3B9BB",
/* pixels */
"                        X o % : : % o X                         ",
"                  . = g M Q y.y.9.y.{ B g : .                   ",
"                - B #.G u 4 1 & & 1 4 r Z -.D 3 .               ",
"            . j >.n , & & > 1 1 1 1 1 & $ * k -.M .             ",
"          X I Q 2 & 1 1 1 1 1 1 1 1 1 1 1 1 & 1 K Q O           ",
"        X  .Z @ < 1 > & 1 1 1 1 1 1 1 1 1 1 1 1 @ b >.#         ",
"      . K N o 1 1 < 0 s & & & 1 1 1 1 1 1 1 1 1 1 @ x | X       ",
"      j T 0 f 1 < & m v.f y L v & 1 1 1 1 1 1 1 1 1 @ G D .     ",
"    ; 6.* L l.y & @ A j.J P 4.x & 1 1 1 1 1 1 1 1 1 1 * 4.8     ",
"  . B N + A ^ z @ z +.1 & + Z s * 1 1 1 1 1 1 1 1 1 1 & d H .   ",
"  = -., & m Z / 5 Y 8 @ & $ Z s & 1 1 1 1 1 1 1 1 1 1 1 & ,.8   ",
"  g J & * 5 o.v / L V s L b L s > 1 1 1 1 1 1 1 1 1 1 1 & n x   ",
"X M y & 1 & s / y ..d.J k 5 m k & 1 1 1 1 1 1 1 1 1 1 1 & 0 K X ",
"o Q 4 < 1 1 & m Y 1 1 & & & t &.& > 1 1 1 1 1 1 1 1 1 1 1 1 w.% ",
"% e.1 1 1 1 1 & Z G & & & 1 & V &.0 & 1 1 1 1 1 1 1 1 1 1 & 6.7 ",
": e., 1 1 1 1 1 & L 8.b t & 1 & s 4.f & 1 1 1 1 1 1 1 1 1 & _ 9 ",
"3 5.> 1 1 1 1 1 & b a.G +.V > > & 4 &.y & 1 1 1 1 1 1 1 1 & _ 9 ",
"% y.1 1 1 1 1 1 < A n J & 0 4 0 1 & s / & 1 1 1 1 1 1 1 1 & 6.8 ",
"o } 4 > 1 1 1 1 2 O.2 J f p *.s > 1 1 G 4 * 1 1 1 1 1 1 1 1 u.= ",
". B t > 1 1 1 , 0 &.$ s $.Y 8 & 1 1 1 A 4 1 1 1 1 1 1 1 & 5 U o ",
"  h Z & 1 1 1 > 2 O.0 g.G b @ 1 1 < 0 Y $ > < 1 1 1 1 1 & z c   ",
"  3 6.& 1 1 1 , < Y V j.N Y 4 & & @ b g.v t 0 5 1 & 1 1 & &.9   ",
"  . F k & 1 < > t r.Y w a.p.j.Y A y m O.n Z L ....A 2 & y U X   ",
"    6 6., < 1 > O.z.G y x.z.j.j.x.f.*.J Y Y +.u.@.V Y + &.e     ",
"    . M K @ 1 1 4 0 2 1 2 2 1 2 1 2 2 & , b b.z.p.A C b H .     ",
"      o Q b @ 1 , > , 1 , < < 1 1 1 1 1 < 5 Z ^ J g i >.O       ",
"        O >.b @ 1 1 1 1 1 1 1 1 1 1 1 1 1 < & & o u 9.;         ",
"          #  .F & & 1 1 1 1 1 1 1 1 1 1 1 1 & @ N 6.;           ",
"            X S -.d & & & 1 1 1 1 1 1 & & $ u #.H O             ",
"              . 8 H -.c q 1 & & & & 1 0 k #.I 9 .               ",
"                  . 7 l H 9.4._ _ ,.y.I x 9 X                   ",
"                        X # 7 9 9 7 = o                         "
};
