/* XPM */
static char *_5b2e471810d449ac5e97e13fb7b2443C892w4eFUPPV5cXG[] = {
/* columns rows colors chars-per-pixel */
"16 16 134 2 ",
"   c None",
".  c #00202A",
"X  c #01212B",
"o  c #01222C",
"O  c #02222C",
"+  c #02232C",
"@  c #03232D",
"#  c #03242D",
"$  c #04242D",
"%  c #04242E",
"&  c #04252E",
"*  c #05252E",
"=  c #06252E",
"-  c #06262F",
";  c #07262F",
":  c #062630",
">  c #072730",
",  c #082730",
"<  c #082731",
"1  c #082831",
"2  c #092831",
"3  c #092932",
"4  c #0A2932",
"5  c #0A2933",
"6  c #0A2A33",
"7  c #0B2A33",
"8  c #0D2B34",
"9  c #0D2C34",
"0  c #0D2C35",
"q  c #0E2C34",
"w  c #0F2E37",
"e  c #102D36",
"r  c #102E37",
"t  c #1B2C31",
"y  c #1C2D32",
"u  c #1E2F33",
"i  c #1F2F33",
"p  c #102F38",
"a  c #112F38",
"s  c #123039",
"d  c #14313A",
"f  c #14323A",
"g  c #15323B",
"h  c #16323A",
"j  c #17333B",
"k  c #17343C",
"l  c #17353E",
"z  c #19353D",
"x  c #18353E",
"c  c #19363E",
"v  c #1A363F",
"b  c #1C373F",
"n  c #213337",
"m  c #223237",
"M  c #223337",
"N  c #233337",
"B  c #213338",
"V  c #223338",
"C  c #28393D",
"Z  c #29393D",
"A  c #2B3A3F",
"S  c #2B3B3F",
"D  c #1B3840",
"F  c #1C3840",
"G  c #1F3A42",
"H  c #1F3B43",
"J  c #264048",
"K  c #274149",
"L  c #2A424A",
"P  c #2A444C",
"I  c #2D464D",
"U  c #37464B",
"Y  c #36474B",
"T  c #37474B",
"R  c #2F4950",
"E  c #324951",
"W  c #314A51",
"Q  c #354C53",
"!  c #364C53",
"~  c #364D53",
"^  c #364D54",
"/  c #354E55",
"(  c #374E54",
")  c #364F56",
"_  c #3C4C51",
"`  c #3D4D52",
"'  c #3D4E52",
"]  c #3E4E52",
"[  c #385057",
"{  c #3A5158",
"}  c #3A5259",
"|  c #3B5259",
" . c #3B5359",
".. c #3C535A",
"X. c #3E545B",
"o. c #415156",
"O. c #435459",
"+. c #47575B",
"@. c #42565C",
"#. c #43565C",
"$. c #47575C",
"%. c #48575C",
"&. c #41585F",
"*. c #45585E",
"=. c #45595E",
"-. c #445A61",
";. c #465B62",
":. c #475C62",
">. c #4B6066",
",. c #4F646B",
"<. c #536469",
"1. c #51646A",
"2. c #51656B",
"3. c #54666B",
"4. c #57676B",
"5. c #54676C",
"6. c #55676C",
"7. c #55686D",
"8. c #586A6E",
"9. c #596B70",
"0. c #5C6D73",
"q. c #5E6F74",
"w. c #5E7175",
"e. c #5E7076",
"r. c #637478",
"t. c #637579",
"y. c #64757A",
"u. c #67777B",
"i. c #69797D",
"p. c #707E82",
"a. c #738185",
"s. c #7B888C",
"d. c #7E8B8E",
"f. c #838F93",
/* pixels */
"          M Y ' _ Y n           ",
"      i %.Q H g g H ( %.i       ",
"    C @.r . @ & 2 2 & p =.C     ",
"  i <.l @ ,.E R 2 8 7 2 > =.i   ",
"  o.&.9.c 3.Q <.< 7 7 7 2 p %.  ",
"n E D q.w...P ..> 7 7 7 8 # ( B ",
"Y H # | 5.( b -.p < 7 7 7 2 H Y ",
"' g 2 2 -.| p H >.c > 7 7 2 g ' ",
"_ l 2 # ( p.Q h g :.8 7 8 2 g ' ",
"Y H 2 > ( [ 6.L @ | j & < < H T ",
"M ( # > ( i.r.h & 2.I l w @ ( B ",
"  =.p 2 y.7.f.f.q.q.r.s.r.L O.  ",
"  i =.> g r g g k w J a.7.8.t   ",
"    C =.w & & 2 2 2 . q #.C     ",
"      i %.Q b g g H Q %.i       ",
"          N T _ _ Y N           "
};
